<?xml version="1.0" standalone="no"?>
<!DOCTYPE svg PUBLIC "-//W3C//DTD SVG 20010904//EN"
 "http://www.w3.org/TR/2001/REC-SVG-20010904/DTD/svg10.dtd">
<svg version="1.0" xmlns="http://www.w3.org/2000/svg"
 width="900.000000pt" height="900.000000pt" viewBox="0 0 900.000000 900.000000"
 preserveAspectRatio="xMidYMid meet">
<metadata>
Created by potrace 1.14, written by Peter Selinger 2001-2017
</metadata>
<g transform="translate(0.000000,900.000000) scale(0.100000,-0.100000)"
fill="#000000" stroke="none">
<path d="M4427 8683 c-4 -3 -7 -24 -7 -45 l0 -38 -45 0 -45 0 0 -50 0 -50 45
0 45 0 0 -49 c0 -49 0 -49 -55 -80 -30 -17 -66 -31 -79 -31 -36 0 -77 -18
-108 -47 l-27 -25 -27 21 c-52 41 -131 17 -168 -52 -20 -35 -20 -35 -50 -20
-72 38 -176 -23 -176 -103 l0 -36 -42 6 c-79 12 -153 -48 -153 -124 0 -36 -2
-39 -32 -45 -17 -3 -42 -14 -55 -24 -22 -19 -23 -19 -55 10 -64 56 -153 44
-194 -26 -12 -19 -22 -35 -24 -35 -2 0 -16 5 -32 11 -65 24 -156 -29 -168 -99
-6 -37 -6 -37 -49 -34 -85 7 -141 -49 -134 -133 l3 -43 -48 -5 c-81 -7 -134
-84 -108 -158 6 -18 10 -33 9 -34 -2 -2 -18 -10 -36 -19 -40 -20 -72 -70 -72
-111 0 -17 11 -46 24 -65 l24 -35 -37 -20 c-20 -11 -45 -37 -56 -57 -17 -31
-18 -43 -9 -77 10 -37 9 -42 -12 -62 -36 -34 -48 -80 -31 -122 8 -19 20 -37
25 -41 7 -4 7 -18 0 -42 -25 -91 27 -173 125 -194 30 -7 60 -11 68 -8 7 2 37
-8 66 -23 31 -16 78 -31 113 -35 36 -4 60 -11 60 -19 0 -17 43 -55 62 -55 9 0
87 29 175 64 306 123 611 211 881 256 72 12 141 20 154 17 19 -3 17 -5 -7 -6
-56 -2 -259 -42 -410 -81 -179 -46 -371 -110 -595 -199 -145 -58 -165 -69
-168 -90 -3 -15 3 -30 13 -38 14 -10 17 -21 12 -58 -6 -44 -6 -46 33 -71 30
-20 40 -33 40 -53 0 -58 34 -64 121 -21 233 118 539 216 820 262 120 20 171
22 479 23 371 0 432 -6 662 -61 175 -42 415 -126 580 -204 59 -27 82 -24 86
13 3 22 15 36 51 59 l48 29 -9 45 c-8 38 -7 47 7 58 50 36 -9 72 -298 180
-252 95 -513 165 -740 201 -45 7 -71 13 -57 14 46 2 265 -38 404 -74 182 -46
441 -133 598 -201 142 -60 169 -62 197 -13 13 23 23 29 52 29 51 0 124 24 163
53 27 21 42 25 92 24 68 -2 125 22 158 67 17 22 20 40 19 87 -4 83 -4 113 -1
158 2 28 -4 47 -24 73 -21 28 -25 42 -21 79 7 67 -18 104 -96 146 -2 1 6 14
18 29 15 19 21 41 21 75 0 42 -5 53 -35 84 -20 19 -45 35 -56 35 -16 0 -19 4
-14 18 26 59 7 135 -43 168 -14 9 -43 17 -64 18 -36 1 -38 3 -33 24 8 33 -11
95 -38 120 -31 29 -80 43 -116 32 -27 -8 -30 -6 -35 26 -15 76 -99 129 -167
105 -24 -8 -35 -8 -37 -1 -9 27 -56 70 -87 80 -46 15 -89 5 -129 -31 -33 -29
-33 -29 -51 -8 -10 11 -38 25 -62 31 -41 10 -43 12 -43 47 0 77 -51 125 -129
123 -48 -1 -49 0 -55 33 -4 21 -20 45 -43 65 -31 28 -41 31 -82 28 -25 -3 -54
-8 -63 -12 -13 -6 -20 0 -31 26 -8 19 -27 45 -43 57 -39 31 -122 26 -159 -9
l-24 -23 -36 32 c-25 21 -46 31 -69 31 -19 0 -39 7 -47 17 -8 9 -33 25 -55 35
-43 18 -54 41 -46 95 3 18 11 22 45 25 l42 3 0 45 0 45 -42 3 c-37 3 -43 6
-43 25 0 55 -10 67 -54 67 -24 0 -46 -3 -49 -7z m71 -61 l3 -42 45 0 c42 0 44
-1 44 -30 0 -29 -2 -30 -45 -30 l-45 0 0 -69 0 -69 47 -16 c26 -9 56 -24 67
-35 12 -10 39 -21 61 -24 41 -6 85 -44 85 -73 0 -23 26 -16 40 12 16 29 58 54
90 54 29 0 77 -27 90 -49 5 -11 10 -33 10 -50 0 -30 21 -54 28 -33 6 18 57 42
90 42 19 0 41 -11 61 -29 27 -25 31 -36 31 -80 0 -54 4 -59 34 -36 31 23 90
19 123 -9 23 -20 28 -32 28 -73 0 -26 -4 -55 -8 -64 -7 -15 -2 -16 37 -12 56
7 86 -10 111 -64 l18 -38 14 40 c18 54 46 75 98 75 57 0 93 -29 101 -81 l6
-39 28 20 c44 31 105 27 142 -10 28 -28 30 -36 26 -80 -5 -53 2 -61 36 -35 31
23 90 19 123 -9 24 -21 28 -32 28 -78 0 -29 -4 -64 -9 -77 -8 -22 -6 -23 15
-16 60 18 86 17 113 -7 42 -37 49 -79 22 -133 l-23 -45 29 0 c61 0 108 -45
108 -104 0 -13 -14 -42 -31 -65 -17 -24 -28 -46 -24 -49 3 -4 20 -11 38 -17
43 -14 78 -67 70 -108 -3 -18 -9 -38 -13 -45 -4 -8 7 -27 28 -48 32 -32 34
-38 28 -77 -9 -48 -9 -51 0 -133 6 -60 5 -63 -29 -100 -35 -38 -37 -39 -109
-40 -65 0 -77 -3 -116 -31 -49 -36 -128 -58 -176 -49 -31 6 -34 4 -39 -24 -11
-53 -39 -50 -235 28 -409 162 -759 248 -1116 273 -463 32 -1038 -80 -1585
-310 -117 -49 -124 -51 -147 -36 -15 9 -24 25 -24 40 0 24 -3 25 -54 25 -58 0
-107 14 -146 40 -16 11 -51 19 -94 22 -64 4 -71 7 -102 41 -30 32 -34 43 -33
89 l0 53 13 -48 c17 -61 50 -96 105 -108 81 -18 154 43 154 128 0 53 -24 91
-77 117 -51 25 -99 15 -145 -31 l-35 -35 -23 28 c-35 44 -31 89 13 129 31 28
34 36 25 53 -33 62 16 152 84 152 22 0 19 18 -12 58 -29 38 -34 83 -13 122 12
23 66 50 100 50 l21 0 -20 26 c-29 37 -28 104 2 139 29 34 84 43 128 21 17 -9
34 -16 36 -16 9 0 1 25 -17 47 -36 46 -21 116 30 146 34 21 67 21 100 2 38
-22 53 -19 44 8 -22 67 14 125 85 134 33 5 48 1 71 -16 37 -26 40 -26 40 2 0
50 49 96 103 97 49 0 73 -13 92 -51 l16 -30 36 32 c33 28 41 31 85 27 42 -5
48 -3 42 11 -4 9 -9 35 -12 58 -3 37 0 47 26 73 40 40 97 42 141 4 38 -32 57
-24 36 16 -20 39 -19 69 5 107 27 44 84 62 129 39 18 -10 35 -24 38 -32 8 -22
23 -16 23 10 0 32 40 88 74 104 33 17 76 3 105 -34 24 -30 26 -30 41 6 16 39
55 63 104 63 28 0 50 7 68 22 15 13 43 29 63 35 l35 12 0 69 0 69 -50 0 c-43
0 -50 3 -50 20 0 24 28 40 69 40 29 0 31 2 31 38 0 43 7 54 30 50 10 -2 16
-17 18 -46z m-1800 -1852 c1 0 11 -15 22 -32 47 -78 2 -167 -83 -168 -56 0
-107 52 -107 108 0 72 65 120 135 100 16 -4 31 -8 33 -8z m1915 -57 c-57 -2
-149 -2 -205 0 -57 1 -11 3 102 3 113 0 159 -2 103 -3z m-335 -10 c-16 -2 -40
-2 -55 0 -16 2 -3 4 27 4 30 0 43 -2 28 -4z m515 0 c-13 -2 -35 -2 -50 0 -16
2 -5 4 22 4 28 0 40 -2 28 -4z m-73 -23 c323 -28 699 -126 1067 -277 157 -65
163 -77 61 -108 -37 -11 -70 -23 -74 -27 -4 -5 6 -40 21 -78 35 -86 27 -102
-34 -71 -61 32 -273 115 -381 150 -236 77 -399 107 -674 123 -533 30 -954 -46
-1440 -261 -76 -34 -139 -61 -142 -61 -12 0 -1 57 21 112 14 35 23 68 21 74
-3 7 -39 20 -80 30 -45 10 -76 23 -76 30 0 7 71 40 158 74 615 242 1087 330
1552 290z"/>
<path d="M4244 8290 c-30 -12 -54 -49 -54 -82 0 -36 37 -77 77 -84 28 -6 38
-1 68 29 19 19 35 42 35 51 0 33 -30 74 -61 85 -37 13 -37 13 -65 1z m78 -37
c36 -32 10 -103 -38 -103 -58 0 -89 50 -59 96 19 29 69 33 97 7z"/>
<path d="M4605 8265 c-17 -16 -25 -35 -25 -60 0 -95 131 -117 161 -28 29 88
-71 154 -136 88z m104 -21 c27 -34 26 -50 -4 -79 -40 -41 -89 -25 -101 33 -13
63 65 97 105 46z"/>
<path d="M4834 8256 c-58 -49 -20 -146 57 -146 39 0 89 48 89 85 0 37 -50 85
-89 85 -17 0 -42 -10 -57 -24z m94 -12 c43 -30 15 -114 -38 -114 -29 0 -60 36
-60 69 0 31 30 61 60 61 9 0 26 -7 38 -16z"/>
<path d="M4009 8231 c-37 -38 -39 -82 -4 -116 51 -52 145 -16 145 55 0 40 -47
90 -85 90 -16 0 -38 -12 -56 -29z m91 -9 c42 -34 17 -112 -36 -112 -23 0 -64
42 -64 67 0 18 45 63 63 63 8 0 25 -8 37 -18z"/>
<path d="M3815 8178 c-31 -18 -44 -40 -45 -76 0 -84 117 -115 155 -41 22 42
18 67 -14 100 -31 30 -63 36 -96 17z m75 -26 c27 -22 29 -65 4 -93 -24 -27
-62 -21 -87 13 -17 23 -19 31 -9 53 10 22 39 42 63 44 4 1 17 -7 29 -17z"/>
<path d="M5042 8167 c-31 -33 -30 -90 3 -122 34 -35 78 -33 116 4 36 36 37 70
3 110 -33 40 -89 43 -122 8z m96 -13 c46 -32 17 -114 -40 -114 -26 0 -58 36
-58 65 0 29 32 65 58 65 10 0 28 -7 40 -16z"/>
<path d="M4424 8067 c-44 -38 -31 -117 22 -137 40 -16 60 -12 93 16 40 33 42
79 6 118 -31 34 -83 35 -121 3z m94 -13 c33 -23 27 -83 -10 -103 -25 -14 -29
-14 -55 5 -35 26 -41 66 -14 93 25 25 49 27 79 5z"/>
<path d="M5255 8056 c-31 -13 -55 -51 -55 -87 0 -27 53 -79 80 -79 29 0 76 26
84 45 30 79 -37 152 -109 121z m77 -33 c43 -39 8 -107 -53 -101 -78 7 -68 117
10 118 14 0 33 -7 43 -17z"/>
<path d="M3624 8036 c-35 -15 -44 -32 -44 -80 0 -74 98 -109 146 -52 42 48 27
107 -31 132 -40 16 -33 16 -71 0z m78 -33 c38 -34 11 -103 -40 -103 -54 0 -81
62 -45 102 20 22 61 23 85 1z"/>
<path d="M4147 8020 c-182 -31 -315 -114 -447 -277 -99 -122 -169 -293 -170
-412 0 -47 39 -97 84 -105 73 -14 116 -75 116 -166 0 -52 -17 -81 -65 -107
-18 -10 -18 -13 -5 -39 22 -41 67 -64 125 -64 57 0 88 17 110 60 17 33 20 76
5 85 -5 3 -10 28 -10 55 0 42 4 51 35 79 41 36 95 42 134 15 27 -19 51 -71 51
-110 0 -124 198 -157 253 -41 24 50 22 57 -21 57 -37 0 -75 19 -99 50 -18 22
-16 131 2 157 8 11 34 33 57 48 24 15 50 41 58 59 10 20 31 39 59 52 38 18 42
22 24 28 -11 4 -29 16 -39 27 -17 19 -19 41 -19 277 0 142 -4 263 -8 270 -9
14 -150 15 -230 2z m210 -22 c4 -7 8 -87 9 -178 l1 -165 -206 0 c-190 -1 -213
-3 -302 -27 -53 -14 -131 -42 -174 -62 -43 -20 -80 -34 -83 -32 -2 3 13 37 35
78 28 54 66 101 143 179 109 111 174 153 284 186 97 29 279 42 293 21z"/>
<path d="M4585 7990 c-4 -22 -11 -42 -16 -46 -15 -9 -10 -91 8 -129 16 -34 16
-39 0 -84 -21 -59 -21 -107 -2 -141 8 -14 14 -33 15 -43 0 -31 -29 -81 -57
-99 l-26 -16 40 -21 c24 -12 46 -33 54 -49 8 -18 25 -34 46 -41 54 -20 73 -53
73 -132 0 -61 -3 -72 -28 -100 -21 -24 -38 -32 -75 -36 -51 -6 -57 -16 -33
-61 45 -87 153 -103 221 -32 20 21 28 39 28 62 -2 86 40 138 112 138 80 0 123
-63 103 -152 -25 -110 90 -196 192 -143 48 25 80 85 45 85 -8 0 -28 12 -45 28
-78 70 -29 232 75 247 29 5 52 16 71 36 l27 28 -11 98 c-24 211 -103 351 -265
474 -149 113 -302 169 -459 169 l-86 0 -7 -40z m290 -14 c183 -58 366 -207
440 -359 21 -42 36 -79 33 -82 -3 -3 -40 11 -83 31 -43 20 -121 48 -174 62
-89 24 -112 26 -304 27 -225 0 -224 0 -192 55 8 14 14 41 14 60 0 19 -6 46
-14 60 -19 33 -19 81 0 116 8 16 15 38 15 48 0 18 6 19 93 13 57 -3 122 -15
172 -31z"/>
<path d="M5624 7900 c-55 -22 -70 -95 -29 -135 53 -54 145 -21 145 51 0 46 -9
63 -41 79 -31 17 -44 18 -75 5z m86 -52 c13 -25 13 -31 0 -55 -38 -67 -138
-20 -110 51 17 46 85 48 110 4z"/>
<path d="M3274 7890 c-54 -22 -70 -91 -31 -135 48 -57 147 -20 147 55 0 56
-66 101 -116 80z m80 -42 c21 -30 20 -54 -4 -78 -27 -27 -75 -26 -94 2 -32 46
-6 98 49 98 24 0 39 -7 49 -22z"/>
<path d="M5372 7867 c-25 -26 -29 -82 -9 -108 15 -19 50 -39 71 -39 8 0 28 12
45 26 62 52 29 144 -50 144 -24 0 -43 -7 -57 -23z m100 -14 c38 -34 11 -103
-40 -103 -32 0 -62 27 -62 54 0 56 62 86 102 49z"/>
<path d="M3463 7855 c-31 -21 -40 -78 -19 -110 49 -74 156 -43 156 45 0 68
-80 105 -137 65z m101 -27 c32 -45 7 -98 -45 -98 -35 0 -59 24 -59 57 0 58 73
86 104 41z"/>
<path d="M4451 7849 c-35 -14 -50 -39 -51 -80 0 -49 33 -79 87 -79 33 0 46 6
62 26 54 69 -18 166 -98 133z m87 -51 c21 -45 -8 -88 -60 -88 -29 0 -58 31
-58 64 0 58 92 77 118 24z"/>
<path d="M5820 7817 c-80 -40 -51 -157 38 -157 80 0 113 92 51 144 -34 29 -52
32 -89 13z m90 -49 c13 -25 13 -31 0 -55 -32 -57 -112 -32 -112 33 0 58 83 73
112 22z"/>
<path d="M3080 7813 c-77 -29 -86 -124 -14 -158 33 -15 37 -15 72 2 64 32 69
107 9 143 -33 21 -42 22 -67 13z m62 -35 c26 -20 27 -68 2 -92 -36 -37 -104
-7 -104 45 0 47 64 76 102 47z"/>
<path d="M6014 7686 c-74 -33 -63 -144 16 -161 82 -18 138 87 77 143 -31 28
-57 33 -93 18z m74 -32 c27 -19 29 -64 5 -87 -43 -38 -103 -15 -103 40 0 54
52 79 98 47z"/>
<path d="M5475 7665 c-35 -34 -33 -78 4 -116 33 -32 58 -36 100 -14 33 16 41
33 41 80 0 68 -95 101 -145 50z m105 -15 c27 -27 25 -56 -5 -86 -29 -29 -58
-26 -88 9 -50 57 39 131 93 77z"/>
<path d="M2855 7655 c-41 -40 -33 -105 16 -130 38 -20 62 -19 93 6 35 28 37
95 3 127 -32 30 -81 29 -112 -3z m93 -11 c33 -23 27 -83 -10 -103 -25 -14 -29
-14 -55 6 -22 16 -28 28 -26 54 2 54 47 74 91 43z"/>
<path d="M3352 7647 c-49 -52 -12 -147 58 -147 37 0 90 47 90 80 0 29 -26 76
-45 84 -36 13 -82 6 -103 -17z m110 -28 c24 -32 11 -75 -27 -89 -65 -25 -113
52 -64 101 26 26 66 22 91 -12z"/>
<path d="M5638 7615 c4 -39 0 -48 -27 -76 -38 -37 -39 -49 -5 -49 41 0 94 -59
94 -105 0 -46 -53 -105 -94 -105 l-25 0 24 -36 c14 -20 25 -49 25 -63 0 -16
11 -37 29 -53 36 -34 43 -72 27 -134 -25 -94 -61 -122 -141 -111 -42 6 -45 5
-45 -16 0 -29 33 -82 62 -101 69 -45 186 -15 199 52 8 40 51 88 86 97 35 8 89
-12 113 -42 25 -31 26 -89 4 -137 -24 -48 -12 -102 32 -143 42 -39 89 -50 145
-32 51 17 60 35 24 49 -43 16 -75 58 -75 99 0 54 42 137 79 156 38 19 38 26 7
158 -63 265 -131 382 -289 502 -57 42 -227 135 -249 135 -2 0 -2 -20 0 -45z
m160 -58 c94 -56 179 -135 231 -212 49 -74 67 -112 58 -121 -3 -3 -29 8 -58
25 -54 30 -252 101 -283 101 -10 0 -16 8 -16 23 -1 40 -37 105 -69 122 l-31
15 20 38 c11 20 20 45 20 54 0 17 2 17 38 3 20 -9 61 -30 90 -48z"/>
<path d="M3232 7610 c-84 -39 -211 -130 -262 -187 -93 -106 -178 -322 -205
-520 -6 -49 -5 -52 21 -65 19 -9 35 -30 50 -68 34 -81 31 -112 -13 -161 -44
-48 -36 -59 46 -59 47 0 57 4 86 33 45 45 54 96 26 136 -57 79 7 189 102 177
45 -5 72 -27 98 -79 63 -122 248 -94 275 41 l6 32 -73 -6 c-72 -6 -75 -5 -100
22 -33 36 -49 83 -49 142 0 38 5 50 34 76 18 18 36 45 39 61 3 17 8 39 12 51
5 15 0 23 -20 32 -32 15 -58 74 -50 113 8 37 59 79 96 79 34 0 40 25 9 35 -28
9 -50 56 -50 105 0 22 -3 40 -7 40 -5 -1 -36 -14 -71 -30z m52 -44 c4 -19 15
-45 25 -58 19 -23 19 -23 -17 -43 -26 -15 -41 -33 -53 -65 l-16 -44 -89 -23
c-49 -13 -123 -40 -164 -60 -41 -21 -79 -39 -83 -41 -4 -2 -1 13 8 34 45 110
157 220 298 295 40 21 75 39 78 39 4 0 10 -15 13 -34z"/>
<path d="M4444 7616 c-35 -15 -44 -32 -44 -80 0 -44 35 -76 84 -76 74 0 112
80 64 134 -29 32 -64 39 -104 22z m94 -48 c26 -54 -27 -105 -83 -80 -33 15
-42 55 -20 88 13 21 23 25 53 22 29 -2 40 -9 50 -30z"/>
<path d="M6142 7487 c-34 -36 -30 -89 10 -122 25 -21 38 -25 62 -21 105 20 93
166 -13 166 -26 0 -44 -7 -59 -23z m95 -5 c22 -14 32 -57 19 -83 -25 -50 -116
-29 -116 28 0 45 60 79 97 55z"/>
<path d="M2696 7469 c-34 -40 -33 -74 3 -110 56 -56 145 -22 145 56 0 79 -97
115 -148 54z m102 -5 c34 -23 27 -83 -10 -104 -25 -13 -31 -13 -55 0 -38 21
-45 81 -11 104 12 9 29 16 38 16 9 0 26 -7 38 -16z"/>
<path d="M5536 7445 c-56 -52 -19 -145 59 -145 25 0 44 8 60 25 79 78 -37 196
-119 120z m89 -7 c53 -24 42 -101 -16 -113 -28 -6 -36 -3 -56 19 -29 34 -29
51 2 81 27 28 34 30 70 13z"/>
<path d="M3295 7415 c-71 -70 26 -180 111 -126 35 22 47 59 32 103 -12 35 -35
48 -83 48 -25 0 -43 -8 -60 -25z m109 -14 c24 -26 17 -70 -15 -93 -25 -19 -28
-19 -58 -4 -17 9 -31 21 -31 25 0 5 -2 16 -5 23 -3 8 4 26 15 41 26 32 69 36
94 8z"/>
<path d="M4423 7331 c-104 -48 -102 -196 4 -243 54 -24 99 -18 142 18 81 68
53 206 -47 234 -48 13 -50 13 -99 -9z m136 -42 c26 -26 31 -38 31 -81 0 -41
-5 -54 -29 -79 -24 -24 -38 -29 -76 -29 -40 0 -52 5 -81 34 -28 28 -34 42 -34
76 0 34 6 48 34 76 29 29 41 34 79 34 37 0 51 -5 76 -31z"/>
<path d="M6237 7282 c-34 -35 -35 -72 -3 -109 32 -37 99 -39 127 -4 69 85 -49
192 -124 113z m104 -13 c27 -27 21 -66 -12 -92 -24 -17 -30 -18 -55 -6 -40 19
-47 79 -12 103 30 22 54 20 79 -5z"/>
<path d="M2609 7271 c-32 -33 -36 -58 -14 -100 38 -75 155 -43 155 43 0 26 -7
40 -31 60 -40 34 -74 33 -110 -3z m96 -16 c14 -13 25 -30 25 -38 0 -25 -41
-67 -64 -67 -53 0 -78 78 -36 112 30 24 46 23 75 -7z"/>
<path d="M3419 7187 c-45 -29 -73 -87 -65 -131 14 -72 80 -122 151 -113 76 8
121 58 119 133 -2 106 -118 169 -205 111z m121 -12 c41 -21 60 -53 60 -103 0
-35 -6 -49 -29 -72 -51 -52 -111 -52 -162 0 -23 22 -29 38 -29 70 0 52 13 76
53 100 38 24 68 25 107 5z"/>
<path d="M5387 7179 c-37 -28 -57 -69 -57 -119 0 -57 57 -119 115 -126 74 -9
155 58 155 128 0 44 -29 98 -64 119 -42 26 -113 25 -149 -2z m132 -15 c38 -23
53 -51 53 -97 -1 -50 -24 -85 -69 -104 -31 -12 -41 -13 -72 -1 -49 19 -84 72
-77 117 14 86 94 127 165 85z"/>
<path d="M6292 7057 c-47 -50 -17 -129 56 -143 26 -5 36 -1 62 24 38 39 40 83
5 117 -33 34 -93 34 -123 2z m99 -7 c22 -12 27 -78 7 -98 -17 -17 -68 -15 -90
5 -53 48 17 128 83 93z"/>
<path d="M2554 7046 c-58 -49 -20 -146 57 -146 43 0 79 39 79 85 0 74 -80 110
-136 61z m94 -16 c27 -26 28 -64 2 -90 -24 -24 -48 -25 -78 -4 -28 19 -29 67
-2 94 26 26 50 25 78 0z"/>
<path d="M4464 7023 c-12 -51 -43 -101 -84 -135 -22 -19 -40 -38 -40 -41 0 -4
59 -7 130 -7 73 0 130 4 130 9 0 5 -11 18 -24 29 -37 29 -74 88 -81 132 -8 46
-22 52 -31 13z"/>
<path d="M3979 6898 c-12 -24 -33 -55 -47 -70 -14 -15 -23 -31 -19 -34 12 -12
267 28 267 41 0 7 -11 16 -25 19 -14 4 -43 24 -64 46 -53 55 -83 54 -112 -2z"/>
<path d="M4866 6903 c-16 -19 -40 -39 -53 -44 -35 -13 -29 -39 10 -39 17 0 72
-6 120 -14 95 -14 112 -8 79 27 -11 12 -28 41 -37 65 -16 39 -20 42 -54 41
-29 0 -42 -8 -65 -36z"/>
<path d="M3557 6923 c-3 -5 -8 -31 -12 -59 -6 -51 -57 -154 -75 -154 -6 0 -10
-7 -10 -15 0 -19 -4 -19 93 6 196 49 214 58 159 77 -41 14 -100 69 -123 114
-20 39 -25 43 -32 31z"/>
<path d="M5375 6884 c-23 -43 -76 -91 -110 -100 -39 -10 -30 -32 18 -44 23 -7
80 -22 126 -36 47 -13 86 -22 88 -20 3 2 -12 25 -31 50 -37 49 -56 100 -56
154 0 42 -11 41 -35 -4z"/>
<path d="M6295 6821 c-49 -23 -75 -65 -75 -124 0 -55 33 -100 86 -117 50 -17
95 -5 133 34 101 104 -14 268 -144 207z m118 -32 c15 -11 31 -38 37 -59 33
-122 -142 -190 -196 -77 -49 102 72 205 159 136z"/>
<path d="M5776 6690 c-17 -10 -52 -24 -78 -30 -26 -7 -50 -15 -53 -20 -5 -8
256 -119 268 -113 4 2 -4 23 -17 46 -14 23 -27 58 -31 78 -5 25 -14 40 -31 48
-30 13 -24 14 -58 -9z"/>
<path d="M3113 6682 c-11 -9 -24 -31 -28 -49 -3 -18 -18 -49 -31 -69 -14 -20
-24 -38 -22 -39 3 -2 184 65 256 95 27 12 20 30 -11 30 -12 0 -46 11 -75 25
-64 29 -61 29 -89 7z"/>
<path d="M4348 6588 c-71 -28 -128 -54 -128 -58 0 -4 59 -24 131 -45 l130 -39
103 32 c127 39 160 51 154 57 -7 7 -249 105 -256 104 -4 0 -64 -23 -134 -51z"/>
<path d="M4844 6600 c-53 -21 -70 -97 -34 -143 54 -68 170 -28 170 58 0 37
-16 62 -50 80 -32 17 -54 18 -86 5z m85 -33 c26 -21 33 -58 16 -84 -35 -53
-105 -51 -126 4 -26 69 52 126 110 80z"/>
<path d="M4005 6568 c-22 -26 -26 -39 -21 -67 10 -68 74 -98 135 -66 33 16 41
33 41 81 0 82 -102 116 -155 52z m109 -4 c42 -41 19 -115 -37 -122 -55 -7 -90
76 -50 120 20 22 66 24 87 2z"/>
<path d="M3534 6448 c-104 -79 -107 -82 -81 -89 15 -4 76 -9 135 -10 99 -3
111 -1 147 21 76 46 187 122 183 125 -4 4 -240 35 -264 35 -6 0 -60 -37 -120
-82z"/>
<path d="M5133 6517 c-57 -5 -103 -13 -103 -18 0 -4 51 -39 113 -77 l112 -70
138 5 c75 3 137 9 136 12 0 3 -47 41 -105 84 -118 87 -100 82 -291 64z"/>
<path d="M5619 6377 c-29 -19 -34 -29 -37 -69 -3 -40 0 -48 28 -72 36 -29 68
-33 109 -11 33 17 41 33 41 83 0 42 -5 51 -40 75 -33 23 -61 21 -101 -6z m104
-25 c47 -42 -10 -137 -70 -116 -59 21 -69 99 -15 128 30 16 57 12 85 -12z"/>
<path d="M3217 6362 c-55 -58 -22 -152 53 -152 52 0 68 8 85 41 23 43 18 77
-14 110 -40 39 -87 40 -124 1z m116 -24 c22 -27 22 -49 -4 -82 -25 -32 -70
-35 -99 -6 -27 27 -25 66 6 96 29 30 67 27 97 -8z"/>
<path d="M4287 6349 c-1122 -87 -2085 -783 -2538 -1834 -106 -246 -168 -475
-215 -800 -25 -165 -25 -586 -1 -768 91 -678 359 -1239 832 -1736 198 -208
495 -430 755 -565 302 -156 666 -268 1030 -317 121 -17 523 -17 655 0 680 84
1217 330 1718 787 187 172 317 330 500 609 359 549 529 1314 442 1981 -78 591
-252 1013 -623 1509 -92 123 -361 394 -500 503 -427 338 -946 554 -1478 617
-163 19 -432 26 -577 14z m643 -44 c512 -80 965 -275 1385 -594 55 -42 175
-150 266 -241 247 -246 424 -492 574 -795 369 -749 405 -1650 99 -2442 -178
-463 -515 -923 -904 -1236 -796 -641 -1859 -833 -2803 -507 -634 219 -1139
608 -1509 1165 -152 229 -313 568 -381 805 -201 696 -151 1455 140 2105 93
207 253 474 376 625 231 285 409 451 686 640 390 265 816 422 1311 485 156 19
612 14 760 -10z"/>
<path d="M4330 5970 c-345 -25 -660 -110 -965 -260 -541 -265 -976 -709 -1232
-1258 -60 -128 -156 -420 -188 -571 -67 -322 -74 -683 -19 -1011 51 -304 167
-621 323 -883 184 -308 368 -521 638 -737 360 -288 769 -462 1248 -532 195
-28 529 -30 710 -4 295 42 593 139 870 285 392 206 755 548 1007 948 158 250
309 675 365 1023 25 160 25 576 0 735 -99 622 -337 1096 -762 1520 -400 398
-929 658 -1485 729 -153 19 -369 26 -510 16z m610 -53 c520 -91 969 -322 1349
-692 428 -416 680 -911 772 -1516 31 -203 31 -533 1 -734 -35 -229 -111 -496
-199 -703 l-18 -42 -158 158 -159 159 41 127 c79 248 107 462 98 750 -4 105
-13 227 -21 271 -78 448 -275 843 -577 1160 -147 154 -351 315 -488 385 l-45
22 -55 -58 c-30 -33 -151 -159 -268 -281 l-213 -222 -58 20 c-139 48 -247 63
-450 64 l-192 0 -456 456 -457 457 49 22 c195 88 401 152 607 189 184 34 270
40 517 36 197 -2 258 -7 380 -28z m705 -742 c473 -297 827 -804 948 -1357 41
-184 51 -282 51 -478 1 -718 -342 -1376 -939 -1805 -129 -92 -115 -108 -115
137 l0 213 76 65 c287 243 522 646 594 1018 112 575 -30 1120 -405 1563 -73
86 -240 239 -261 239 -7 0 -66 -57 -132 -127 l-120 -126 -63 42 c-35 23 -106
63 -156 88 l-92 46 36 41 c75 85 475 496 482 496 5 0 48 -25 96 -55z m-1670
-542 l510 -504 111 115 c60 64 113 116 117 116 49 0 327 -120 327 -141 0 -5
-126 -136 -279 -291 l-280 -283 -558 558 c-307 306 -563 557 -569 557 -34 0
-288 -274 -381 -410 -91 -134 -203 -390 -246 -565 -45 -180 -52 -241 -52 -455
1 -234 19 -360 80 -545 40 -123 131 -318 204 -437 69 -113 207 -275 318 -372
l91 -81 1 -212 c1 -117 -1 -213 -4 -213 -13 0 -162 106 -255 181 -158 127
-354 353 -457 527 -229 388 -337 799 -320 1222 14 342 85 619 234 913 104 205
214 359 395 552 77 83 247 220 352 285 l79 49 36 -31 c20 -17 266 -258 546
-535z m795 108 c240 -48 444 -147 638 -311 39 -33 72 -64 72 -68 0 -4 -56 -63
-124 -131 l-124 -124 -48 42 c-220 194 -514 285 -812 252 l-115 -13 -139 139
-139 138 42 18 c57 26 216 65 307 76 107 14 329 4 442 -18z m901 -56 c271
-234 488 -611 569 -990 33 -153 39 -455 12 -635 -11 -74 -26 -148 -32 -165
l-12 -30 -614 617 c-338 339 -614 621 -614 625 0 4 17 28 39 53 35 41 40 44
63 33 13 -6 53 -35 87 -63 l63 -53 142 142 141 142 -72 68 c-40 37 -73 72 -73
77 0 11 219 234 230 234 4 0 35 -25 71 -55z m-3246 -640 c-78 -230 -115 -464
-115 -727 0 -362 64 -639 218 -953 120 -243 220 -386 417 -594 107 -114 403
-341 444 -341 8 0 11 70 11 231 l0 230 -137 132 c-174 168 -271 297 -366 487
-118 234 -176 443 -198 709 -15 192 14 468 66 609 l13 37 140 -144 139 -145
-5 -185 c-4 -157 -1 -205 16 -306 53 -308 183 -556 412 -785 160 -161 288
-243 520 -335 l105 -42 3 -321 2 -322 189 0 189 0 6 31 c3 17 6 151 6 298 l0
267 118 11 117 12 452 -452 c249 -249 453 -455 453 -458 0 -3 -35 -22 -77 -42
-230 -107 -472 -175 -763 -213 -180 -23 -565 -15 -739 16 -255 45 -520 134
-749 252 -393 202 -753 532 -986 903 -147 233 -227 408 -302 660 -129 433
-147 882 -52 1325 37 177 154 524 191 568 8 10 43 -19 158 -135 l148 -148 -44
-130z m1300 318 c57 -53 114 -110 125 -126 l22 -29 -24 -16 c-53 -36 -191
-180 -239 -249 -317 -458 -223 -1086 215 -1439 96 -77 265 -163 381 -193 174
-45 384 -45 560 -1 104 26 259 104 360 180 44 33 83 60 88 60 8 0 103 -94 196
-193 l54 -58 -39 -40 c-45 -47 -195 -149 -304 -208 -94 -50 -256 -105 -380
-127 -127 -23 -371 -23 -500 0 -484 87 -900 433 -1080 898 -67 172 -100 427
-81 629 33 367 157 634 412 892 64 64 120 117 124 117 3 0 53 -44 110 -97z
m1114 -1033 l0 -160 -158 0 c-87 0 -173 -3 -190 -6 l-31 -6 0 -109 0 -108 143
-3 142 -3 0 -165 0 -165 -137 -3 -138 -3 0 -149 0 -150 -34 0 c-47 0 -202 28
-258 46 l-48 16 0 564 0 564 355 0 355 0 -1 -160z m-876 -654 l147 -154 0 -77
c0 -74 -1 -76 -22 -70 -80 24 -222 119 -326 220 -130 124 -214 257 -265 420
-55 179 -61 180 140 -14 98 -94 244 -240 326 -325z m297 -781 c52 -8 121 -15
153 -15 l57 0 0 -290 0 -290 -167 2 -168 3 -3 308 c-2 291 -1 308 15 303 10
-3 61 -12 113 -21z"/>
</g>
</svg>
